<svg width="115" height="106" viewBox="0 0 115 106" fill="none" xmlns="http://www.w3.org/2000/svg">
<path d="M0 52.9277V105.82H57.2754H114.551V52.9102V0H57.2754L0 0.0175781V52.9277ZM49.1473 8.91211C49.2867 8.96484 48.948 9.79102 48.2109 11.2148C47.0953 13.3418 45.5016 16.4707 35.6602 35.5957C33.2695 40.2363 30.7195 45.1758 29.9824 46.582C29.2453 47.9883 28.2094 49.957 27.6914 50.9766C25.1215 55.9688 22.0934 61.7871 19.4637 66.7969C16.2363 72.9844 11.6941 81.7559 10.5984 83.9883L9.86133 85.4648L9.7418 82.3184C9.5625 78.1699 9.52266 10.7051 9.68203 9.61523L9.82148 8.77148L29.3648 8.80664C40.1027 8.82422 49.0078 8.87695 49.1473 8.91211ZM104.988 47.0566C104.988 71.9473 104.929 85.2715 104.789 85.1484C104.689 85.0605 103.355 82.5645 101.821 79.6289C100.307 76.6758 98.434 73.0723 97.657 71.6309C96.9 70.1719 94.8281 66.2695 93.075 62.9297C88.9711 55.1074 83.3332 44.5605 82.4168 42.9785C81.7594 41.8008 81.6598 41.7305 80.5441 41.3438C75.3645 39.5332 71.4199 35.2617 70.3242 30.2695C69.9457 28.582 70.1648 25.4004 70.8023 23.502L71.3203 21.9727L70.7027 20.8652C70.3441 20.2676 69.4277 18.5449 68.6309 17.0508C67.834 15.5566 66.4992 13.0781 65.6824 11.5488L64.1684 8.78906H84.5684H104.988V47.0566ZM63.7898 27.9316C69.0891 37.6875 75.0258 48.7441 76.9184 52.3301L77.6754 53.7891H67.5352H57.375V35.0156C57.3949 17.8418 57.4148 16.2949 57.7137 16.7695C57.873 17.0508 60.6223 22.0781 63.7898 27.9316ZM82.1777 62.8594C82.5762 62.9648 83.1141 63.8965 87.0387 71.2793C87.8953 72.9141 89.6684 76.2363 90.9434 78.6621C92.2184 81.0703 94.1707 84.7969 95.2664 86.9238C96.3621 89.0508 98.0156 92.1973 98.9121 93.9023L100.586 97.0312H57.4547C33.7477 97.0312 14.3437 96.9961 14.3437 96.9434C14.3437 96.8906 14.6625 96.2402 15.0609 95.502C15.9375 93.8145 16.4555 92.8477 17.4914 90.7559C17.9496 89.877 18.5871 88.6465 18.9059 88.0312C19.2246 87.4336 20.5594 84.8672 21.8742 82.3535C23.1891 79.8398 24.6234 77.1152 25.0617 76.2891C25.8586 74.7598 28.2691 70.1367 30.2215 66.3574C30.8191 65.1973 31.4965 63.9141 31.7355 63.4922L32.1738 62.7539H56.9766C70.623 62.7539 81.9586 62.8066 82.1777 62.8594Z" fill="black"/>
<path d="M84.1103 15.1166C79.1498 16.2591 75.3845 19.7045 74.0896 24.2396C73.4919 26.3314 73.6314 29.5658 74.3884 31.4466C75.2849 33.7142 77.2572 36.0697 79.5283 37.6166C80.4048 38.1966 82.8552 39.1283 84.3892 39.4623C86.5408 39.9193 90.2064 39.7611 92.3779 39.1283C94.2505 38.5834 96.5416 37.3177 97.7966 36.1224C99.0517 34.9095 100.386 32.9935 101.044 31.4115C101.881 29.4076 102.06 26.4369 101.442 24.2923C100.088 19.6166 96.5615 16.3822 91.4017 15.1166C89.4693 14.642 86.1623 14.642 84.1103 15.1166Z" fill="black"/>
<path d="M31.676 74.3906C31.676 74.4258 31.6561 76.5352 31.6361 79.1016L31.6162 83.7598L57.4549 83.8125L83.2736 83.8477L83.2338 79.1543L83.174 74.4434L57.435 74.3906C43.2705 74.373 31.676 74.373 31.676 74.3906Z" fill="black"/>
</svg>
